<svg width="636" height="424" viewBox="0 0 636 424" fill="none" xmlns="http://www.w3.org/2000/svg">
<path fill-rule="evenodd" clip-rule="evenodd" d="M362.071 361.742C400.339 323.39 424 270.458 424 212C424 153.542 400.339 100.61 362.071 62.2583C381.15 54.3591 402.066 50 424 50C513.47 50 586 122.53 586 212C586 301.47 513.47 374 424 374C402.066 374 381.15 369.641 362.071 361.742ZM318 395.638C254.633 358.982 212 290.47 212 212C212 133.53 254.633 65.0176 318 28.3618C334.16 37.7099 348.971 49.1297 362.071 62.2583C303.327 86.5802 262 144.464 262 212C262 279.536 303.327 337.42 362.071 361.742C348.971 374.87 334.16 386.29 318 395.638ZM318 395.638C286.818 413.676 250.614 424 212 424C94.9156 424 0 329.084 0 212C0 94.9156 94.9156 0 212 0C250.614 0 286.818 10.3238 318 28.3618C349.182 10.3238 385.386 0 424 0C541.084 0 636 94.9156 636 212C636 329.084 541.084 424 424 424C385.386 424 349.182 413.676 318 395.638Z" fill="#292524"/>
</svg>
