<?xml version="1.0" encoding="UTF-8"?>
<svg id="Layer_1" data-name="Layer 1" xmlns="http://www.w3.org/2000/svg" viewBox="0 0 200 35.97">
  <g>
    <path class="cls-1" d="M44.95,30.71c-1.49,0-2.81-.24-3.97-.71-1.16-.47-2.15-1.13-2.95-1.97-.81-.84-1.42-1.86-1.84-3.05-.42-1.19-.63-2.49-.63-3.9s.22-2.75,.65-3.94c.43-1.19,1.06-2.2,1.88-3.05,.82-.84,1.8-1.49,2.95-1.95,1.15-.46,2.46-.69,3.92-.69s2.72,.23,3.86,.69c1.14,.46,2.11,1.1,2.92,1.93,.8,.83,1.42,1.84,1.86,3.03s.65,2.51,.65,3.97-.22,2.78-.65,3.96c-.43,1.18-1.05,2.19-1.86,3.03-.81,.84-1.78,1.49-2.93,1.95s-2.43,.69-3.84,.69Zm0-4.05c2.95,0,4.42-1.86,4.42-5.57s-1.47-5.54-4.42-5.54-4.42,1.85-4.42,5.54,1.47,5.57,4.42,5.57Z"/>
    <path class="cls-1" d="M67.68,30.22v-11.07c0-1.41-.24-2.36-.71-2.86-.47-.49-1.28-.74-2.41-.74-2.5,0-3.75,1.4-3.75,4.2v10.48h-4.83V11.95h4.61v2.67c.57-1.04,1.32-1.83,2.27-2.36,.94-.53,2.15-.8,3.64-.8,.87,0,1.67,.13,2.41,.39,.74,.26,1.38,.65,1.91,1.17,.53,.52,.95,1.16,1.26,1.91,.31,.76,.46,1.63,.46,2.62v12.67h-4.87Z"/>
    <path class="cls-1" d="M78.9,30.22l-6.54-18.28h5.39l3.83,12.07,3.86-12.07h5.09l-6.58,18.28h-5.05Z"/>
    <path class="cls-1" d="M94.98,22.35c.07,1.39,.48,2.49,1.21,3.31,.73,.82,1.69,1.23,2.88,1.23,.79,0,1.49-.18,2.1-.54,.61-.36,1-.86,1.17-1.5h4.98c-.57,1.88-1.56,3.33-2.97,4.35-1.41,1.02-3.1,1.52-5.05,1.52-6.09,0-9.14-3.32-9.14-9.96,0-1.41,.2-2.69,.59-3.83,.4-1.14,.97-2.12,1.73-2.93,.76-.82,1.68-1.44,2.77-1.88,1.09-.43,2.34-.65,3.75-.65,2.82,0,4.96,.9,6.41,2.71,1.45,1.81,2.17,4.53,2.17,8.17h-12.59Zm7.62-3.05c-.02-.67-.14-1.26-.35-1.76-.21-.51-.49-.93-.84-1.26-.35-.33-.74-.58-1.19-.74-.45-.16-.9-.24-1.37-.24-.97,0-1.8,.35-2.51,1.06-.71,.71-1.11,1.69-1.21,2.95h7.47Z"/>
    <path class="cls-1" d="M109.25,30.22V11.95h4.53v2.19c.4-.62,.81-1.1,1.24-1.45,.43-.35,.88-.61,1.34-.8,.46-.19,.92-.3,1.39-.35,.47-.05,.95-.07,1.45-.07h.63v4.94c-.45-.07-.89-.11-1.34-.11-2.95,0-4.42,1.47-4.42,4.42v9.51h-4.83Z"/>
    <path class="cls-1" d="M131.46,17.48c-.12-.89-.45-1.52-.97-1.88-.52-.36-1.34-.54-2.45-.54-.92,0-1.62,.12-2.12,.35-.5,.24-.74,.63-.74,1.17s.25,.96,.74,1.24c.5,.29,1.24,.56,2.23,.84,1.04,.3,2.03,.56,2.97,.8,.94,.24,1.77,.49,2.49,.76,.97,.4,1.71,.94,2.23,1.62,.52,.68,.78,1.62,.78,2.8,0,1.91-.68,3.39-2.02,4.46-1.35,1.06-3.34,1.6-5.96,1.6-2.82,0-4.98-.59-6.48-1.78s-2.27-2.71-2.32-4.57h4.98c0,.87,.33,1.54,1,2.01,.67,.47,1.6,.71,2.79,.71,.87,0,1.62-.14,2.27-.43,.64-.28,.97-.77,.97-1.47,0-.64-.29-1.1-.87-1.37-.58-.27-1.27-.51-2.06-.71-1.54-.37-2.77-.71-3.71-1-.94-.3-1.73-.66-2.38-1.08-.87-.54-1.47-1.16-1.8-1.86-.33-.69-.5-1.45-.5-2.27,0-.77,.14-1.49,.41-2.15,.27-.67,.72-1.24,1.34-1.73,.62-.48,1.42-.86,2.4-1.13,.98-.27,2.16-.41,3.55-.41,2.65,0,4.6,.51,5.85,1.52,1.25,1.02,1.94,2.51,2.06,4.49h-4.64Z"/>
    <path class="cls-1" d="M138.11,9.76V5.26h4.83v4.49h-4.83Zm0,20.47V11.95h4.83V30.22h-4.83Z"/>
    <path class="cls-1" d="M154.12,30.71c-1.49,0-2.81-.24-3.97-.71-1.16-.47-2.15-1.13-2.95-1.97-.81-.84-1.42-1.86-1.84-3.05-.42-1.19-.63-2.49-.63-3.9s.22-2.75,.65-3.94c.43-1.19,1.06-2.2,1.88-3.05,.82-.84,1.8-1.49,2.95-1.95,1.15-.46,2.46-.69,3.92-.69s2.72,.23,3.86,.69c1.14,.46,2.11,1.1,2.92,1.93,.8,.83,1.42,1.84,1.86,3.03s.65,2.51,.65,3.97-.22,2.78-.65,3.96c-.43,1.18-1.05,2.19-1.86,3.03-.81,.84-1.78,1.49-2.93,1.95s-2.43,.69-3.84,.69Zm0-4.05c2.95,0,4.42-1.86,4.42-5.57s-1.47-5.54-4.42-5.54-4.42,1.85-4.42,5.54,1.47,5.57,4.42,5.57Z"/>
    <path class="cls-1" d="M176.86,30.22v-11.07c0-1.41-.24-2.36-.71-2.86-.47-.49-1.28-.74-2.41-.74-2.5,0-3.75,1.4-3.75,4.2v10.48h-4.83V11.95h4.61v2.67c.57-1.04,1.32-1.83,2.27-2.36,.94-.53,2.15-.8,3.64-.8,.87,0,1.67,.13,2.41,.39,.74,.26,1.38,.65,1.91,1.17,.53,.52,.95,1.16,1.26,1.91,.31,.76,.46,1.63,.46,2.62v12.67h-4.87Z"/>
    <path class="cls-1" d="M194.84,17.48c-.12-.89-.45-1.52-.97-1.88-.52-.36-1.34-.54-2.45-.54-.92,0-1.62,.12-2.12,.35-.5,.24-.74,.63-.74,1.17s.25,.96,.74,1.24c.5,.29,1.24,.56,2.23,.84,1.04,.3,2.03,.56,2.97,.8,.94,.24,1.77,.49,2.49,.76,.97,.4,1.71,.94,2.23,1.62,.52,.68,.78,1.62,.78,2.8,0,1.91-.68,3.39-2.02,4.46-1.35,1.06-3.34,1.6-5.96,1.6-2.82,0-4.98-.59-6.48-1.78s-2.27-2.71-2.32-4.57h4.98c0,.87,.33,1.54,1,2.01,.67,.47,1.6,.71,2.79,.71,.87,0,1.62-.14,2.27-.43,.64-.28,.97-.77,.97-1.47,0-.64-.29-1.1-.87-1.37-.58-.27-1.27-.51-2.06-.71-1.54-.37-2.77-.71-3.71-1-.94-.3-1.73-.66-2.38-1.08-.87-.54-1.47-1.16-1.8-1.86-.33-.69-.5-1.45-.5-2.27,0-.77,.14-1.49,.41-2.15,.27-.67,.72-1.24,1.34-1.73,.62-.48,1.42-.86,2.4-1.13,.98-.27,2.16-.41,3.55-.41,2.65,0,4.6,.51,5.85,1.52,1.25,1.02,1.94,2.51,2.06,4.49h-4.64Z"/>
  </g>
  <path class="cls-1" id="logorotate" d="M17.98,30.5c-6.9,0-12.52-5.62-12.52-12.52S11.08,5.47,17.98,5.47c2.05,0,4.02,.49,5.78,1.41l-4.16,2.07,13.63,9.04,1.02-16.32-4.86,2.42C26.18,1.44,22.19,0,17.98,0,8.07,0,0,8.07,0,17.98s8.07,17.98,17.98,17.98c6.86,0,13.22-4,16.21-10.18l-4.92-2.37c-2.08,4.31-6.51,7.09-11.28,7.09Z"/>
</svg>