<svg fill="#000000" xmlns="http://www.w3.org/2000/svg"  viewBox="0 0 50 50" width="50px" height="50px"><path d="M32.229,10C39.436,10,40,10.564,40,17.77v14.507C40,39.439,39.44,40,32.277,40H17.723C10.56,40,10,39.439,10,32.277V17.723	C10,10.56,10.56,10,17.723,10H32.229z M19.771,33.25V21.046h-3.793V33.25H19.771z M17.876,19.3c1.219,0,2.21-0.991,2.21-2.212	c0-1.219-0.991-2.21-2.21-2.21c-1.222,0-2.212,0.99-2.212,2.21S16.653,19.3,17.876,19.3z M34,33.25v-6.693	c0-3.286-0.71-5.814-4.55-5.814c-1.845,0-3.082,1.012-3.588,1.971H25.81v-1.668h-3.639V33.25h3.79v-6.038	c0-1.592,0.303-3.133,2.277-3.133c1.945,0,1.971,1.821,1.971,3.236v5.935H34z"/></svg>